<?xml version="1.0" encoding="utf-8"?><svg viewBox="0 0 16 16" xmlns="http://www.w3.org/2000/svg" xmlns:xlink="http://www.w3.org/1999/xlink"><style>:root>svg{display:none}:root>svg:target{display:block}</style><svg fill="none" viewBox="0 0 16 16" id="pin" xmlns="http://www.w3.org/2000/svg"><path fill-rule="evenodd" clip-rule="evenodd" d="M8 15.552l.438-.383C12.126 11.949 14 9.138 14 6.667c0-3.5-2.731-6-6-6s-6 2.5-6 6c0 2.47 1.874 5.282 5.562 8.502l.438.383zm0-1.776c-3.129-2.82-4.667-5.21-4.667-7.11C3.333 3.932 5.443 2 8 2s4.667 1.931 4.667 4.667c0 1.9-1.538 4.289-4.667 7.109zM8 3.333A3.333 3.333 0 1 1 8 10a3.333 3.333 0 0 1 0-6.667zM6 6.667a2 2 0 1 1 4 0 2 2 0 0 1-4 0z" fill="#BEA4E1"/></svg><svg fill="none" viewBox="0 0 16 16" id="time" xmlns="http://www.w3.org/2000/svg"><path fill-rule="evenodd" clip-rule="evenodd" d="M8 15.333A7.333 7.333 0 1 1 8 .667a7.333 7.333 0 0 1 0 14.666zM8 14A6 6 0 1 0 8 2a6 6 0 0 0 0 12zm3.333-6.667H8.667V4H7.333v4.667h4V7.333z" fill="#BEA4E1"/></svg></svg>